<?xml version="1.0" encoding="UTF-8"?>
<svg width="1024" height="1024" viewBox="0 0 1024 1024" fill="none" xmlns="http://www.w3.org/2000/svg">
  <defs>
    <radialGradient id="bg" cx="30%" cy="25%" r="90%">
      <stop offset="0%" stop-color="#8B5CF6"/>
      <stop offset="45%" stop-color="#2563EB"/>
      <stop offset="100%" stop-color="#0B1020"/>
    </radialGradient>
    <linearGradient id="shine" x1="260" y1="140" x2="820" y2="860">
      <stop offset="0%" stop-color="#FFFFFF" stop-opacity="0.28"/>
      <stop offset="55%" stop-color="#FFFFFF" stop-opacity="0"/>
    </linearGradient>
    <filter id="shadow" x="0" y="0" width="200%" height="200%">
      <feDropShadow dx="0" dy="18" stdDeviation="22" flood-color="#000000" flood-opacity="0.35"/>
    </filter>
  </defs>

  <!-- Background -->
  <rect x="64" y="64" width="896" height="896" rx="220" fill="url(#bg)"/>
  <path d="M190 170C310 120 430 120 560 160C700 205 825 320 872 470C915 608 880 740 790 832C710 915 590 945 475 930C360 914 260 848 202 760C145 674 138 560 170 470C198 382 225 285 190 170Z" fill="url(#shine)"/>

  <!-- Chat bubble -->
  <g filter="url(#shadow)">
    <path d="M312 322C312 289.5 338.5 263 371 263H653C685.5 263 712 289.5 712 322V544C712 576.5 685.5 603 653 603H468L362 703C352.2 712.4 336 705.4 336 691V603H371C338.5 603 312 576.5 312 544V322Z" fill="#FFFFFF"/>

    <!-- Message dots -->
    <circle cx="422" cy="431" r="28" fill="#111827" fill-opacity="0.85"/>
    <circle cx="512" cy="431" r="28" fill="#111827" fill-opacity="0.85"/>
    <circle cx="602" cy="431" r="28" fill="#111827" fill-opacity="0.85"/>

    <!-- Subtle accent bolt (right side) -->
    <path d="M664 322L598 454H650L590 603L728 430H666L736 322H664Z" fill="#FBBF24" fill-opacity="0.95"/>
  </g>
</svg>
