<?xml version="1.0" encoding="UTF-8"?>
<svg version="1.1" xmlns="http://www.w3.org/2000/svg" width="192" height="192">
<path d="M0 0 C63.36 0 126.72 0 192 0 C192 63.36 192 126.72 192 192 C128.64 192 65.28 192 0 192 C0 128.64 0 65.28 0 0 Z " fill="#DFE6FA" transform="translate(0,0)"/>
<path d="M0 0 C0.7503804 -0.00350464 1.5007608 -0.00700928 2.27388 -0.01062012 C4.74908779 -0.019404 7.22400814 -0.01359537 9.69921875 -0.00683594 C11.43212946 -0.00818468 13.1650398 -0.01012695 14.89794922 -0.01263428 C18.53275144 -0.01558197 22.16745532 -0.01130349 25.80224609 -0.00195312 C30.42728122 0.00937308 35.05208244 0.00292335 39.67710876 -0.00909805 C43.25996608 -0.01638468 46.84276958 -0.01399663 50.42562866 -0.00884247 C52.12861154 -0.00752113 53.83159952 -0.00909964 55.53457642 -0.01380157 C84.1388397 -0.07538834 84.1388397 -0.07538834 95.38671875 9.25878906 C102.46168427 16.88648627 102.55810298 27.10046654 102.45703125 36.91113281 C102.44693304 38.6857096 102.43684237 40.46028642 102.42675781 42.23486328 C102.41954712 43.19672546 102.41233643 44.15858765 102.40490723 45.14959717 C102.3854293 48.47921137 102.38424283 51.80851481 102.38574219 55.13818359 C102.38563716 61.40708775 102.3463502 67.67497617 102.2890625 73.94360352 C102.27072009 76.5447866 102.26336638 79.14606871 102.26660156 81.74731445 C102.26946695 85.56567825 102.23414826 89.38210245 102.19140625 93.20019531 C102.20050018 94.34935928 102.20959412 95.49852325 102.21896362 96.68251038 C102.02798002 107.3779362 97.8987585 115.22079958 90.48828125 122.82128906 C84.58964925 126.85604106 78.66424529 127.70386566 71.72680664 127.6628418 C70.90128799 127.66970505 70.07576935 127.6765683 69.22523499 127.68363953 C66.51976906 127.70181179 63.81488835 127.69808387 61.109375 127.69238281 C59.21422642 127.69694916 57.31907949 127.70225608 55.42393494 127.70826721 C51.46069594 127.71717949 47.49765866 127.71479661 43.53442383 127.70483398 C38.4728283 127.69334584 33.41193059 127.71356312 28.35042667 127.74275112 C24.43915943 127.7611572 20.52805806 127.7608119 16.61675835 127.7551136 C14.75136778 127.75496093 12.88596559 127.76096009 11.02061653 127.77340508 C-7.6669311 127.88053216 -7.6669311 127.88053216 -14.61328125 123.25878906 C-15.52078125 122.66066406 -16.42828125 122.06253906 -17.36328125 121.44628906 C-24.63911716 114.3725597 -26.77388609 107.01892174 -26.91766357 96.98280334 C-26.91832825 96.25475998 -26.91899292 95.52671661 -26.91967773 94.77661133 C-26.92800125 93.98181366 -26.93632477 93.18701599 -26.94490051 92.36813354 C-26.96877246 89.77043604 -26.97774286 87.17299046 -26.984375 84.57519531 C-26.99335624 82.75113355 -27.00247833 80.92707248 -27.01173401 79.10301208 C-27.02816284 75.29123147 -27.03591337 71.47953807 -27.03881836 67.66772461 C-27.04420649 62.80458275 -27.08193062 57.94226971 -27.12756252 53.07936192 C-27.15742444 49.31561849 -27.16454384 45.55207291 -27.16554451 41.78822136 C-27.16972596 39.99619677 -27.18207605 38.20417045 -27.20306206 36.41226387 C-27.32454833 25.14644559 -27.00718752 16.53936485 -19.33203125 7.60253906 C-18.59984375 6.99410156 -17.86765625 6.38566406 -17.11328125 5.75878906 C-16.38109375 5.12972656 -15.64890625 4.50066406 -14.89453125 3.85253906 C-10.07872071 0.48806869 -5.76294145 -0.03331539 0 0 Z " fill="#8B9DF4" transform="translate(58.61328125,32.7412109375)"/>
<path d="M0 0 C7.36750308 6.15791302 14.24377109 13.9901717 15.32763672 23.88525391 C15.79759269 31.83771166 15.59597772 39.15287488 13.09375 46.75 C12.31 46.585 11.52625 46.42 10.71875 46.25 C3.07387215 45.19553409 -2.71375791 44.66842804 -9.21875 49.32421875 C-14.80066915 54.04042359 -16.79490736 58.81514641 -17.45703125 65.92578125 C-17.58525269 67.27990112 -17.58525269 67.27990112 -17.71606445 68.66137695 C-17.8102063 69.69524536 -17.8102063 69.69524536 -17.90625 70.75 C-18.83522095 70.71072388 -18.83522095 70.71072388 -19.78295898 70.6706543 C-22.63628947 70.56560578 -25.48921175 70.50133951 -28.34375 70.4375 C-29.31763672 70.39560547 -30.29152344 70.35371094 -31.29492188 70.31054688 C-37.55723372 70.20582594 -41.63982488 71.07410779 -46.92895508 74.48413086 C-50.94015709 77.05211239 -55.07898909 78.94033968 -59.90625 78.4375 C-60.56625 78.210625 -61.22625 77.98375 -61.90625 77.75 C-62.50455799 73.11311307 -60.77282362 70.02681419 -58.68359375 66.03125 C-57.69060012 63.11713805 -57.94313356 61.66195769 -58.90625 58.75 C-60.41644276 56.33731059 -60.41644276 56.33731059 -62.28125 54 C-69.23720124 44.24452834 -70.17282342 34.50309935 -68.90625 22.75 C-66.56357106 12.45280102 -59.43318499 3.75097651 -50.90625 -2.25 C-34.59299848 -11.11689374 -15.3241718 -11.10447232 0 0 Z " fill="#E1F4FB" transform="translate(122.90625,59.25)"/>
<path d="M0 0 C3.625 1.6875 3.625 1.6875 6 4 C6.9375 6.6875 6.9375 6.6875 7 9 C6 10 6 10 3.125 10.1875 C0 10 0 10 -3 8 C-6.25995538 7.4984684 -7.55815654 7.70145712 -10.3125 9.5625 C-12.62779065 12.90680872 -12.49857427 15.0114058 -12 19 C-11.11670357 21.53958234 -11.11670357 21.53958234 -9 23 C-4.62144505 23.46913089 -2.70415293 23.46943529 1 21 C3.6875 21.375 3.6875 21.375 6 22 C6.33 23.65 6.66 25.3 7 27 C1.33263943 30.90418173 -3.00515641 32.95565225 -10 32 C-15.29112204 29.25268663 -19.09375244 25.71874267 -21 20 C-21.42608386 13.50222112 -20.84356966 9.5321834 -16.62890625 4.296875 C-11.73663079 -0.72445329 -6.75832122 -1.18905802 0 0 Z " fill="#D7EFFA" transform="translate(131,109)"/>
<path d="M0 0 C2.63548461 2.63548461 2.64649512 4.32354922 3 8 C2.32120054 14.51647477 0.7938839 20.34757497 -4 25 C-7.42578125 25.27734375 -7.42578125 25.27734375 -11.3125 24.9375 C-15.98253879 24.69767961 -19.56935598 24.54706561 -23.3125 27.6875 C-28.01016758 32.85373289 -28.44349666 38.27802549 -29 45 C-29.99 45 -30.98 45 -32 45 C-32.61875 45.804375 -33.2375 46.60875 -33.875 47.4375 C-36 50 -36 50 -38.4375 50.875 C-41.18066903 51.00881312 -43.31116367 50.54998925 -46 50 C-52.63020959 49.16957614 -56.89365371 50.57511186 -62.7109375 53.75390625 C-66.84866579 56.00635561 -71.25793058 57.89714827 -76 57 C-77.8125 54.5 -77.8125 54.5 -79 52 C-78.13503906 52.04769531 -77.27007812 52.09539062 -76.37890625 52.14453125 C-72.69484902 51.9869473 -70.30170706 51.15906928 -66.9375 49.6875 C-65.93589844 49.25824219 -64.93429688 48.82898438 -63.90234375 48.38671875 C-61.0100755 47.13248417 -61.0100755 47.13248417 -58.8359375 45.3125 C-54.23567335 43.18345213 -49.65694944 43.95322438 -44.6875 44.3125 C-43.66076172 44.37373047 -42.63402344 44.43496094 -41.57617188 44.49804688 C-39.04949784 44.65082251 -36.52475313 44.81859393 -34 45 C-34.01812744 44.32743164 -34.03625488 43.65486328 -34.05493164 42.96191406 C-34.06903076 42.07213867 -34.08312988 41.18236328 -34.09765625 40.265625 C-34.12484741 38.94739746 -34.12484741 38.94739746 -34.15258789 37.60253906 C-33.80355249 31.64939125 -30.85126185 27.49902668 -26.5 23.625 C-22.50573533 20.37512102 -19.34362026 18.71748523 -14.125 18.75 C-13.30257812 18.74484375 -12.48015625 18.7396875 -11.6328125 18.734375 C-9 19 -9 19 -3 21 C-2.01 14.07 -1.02 7.14 0 0 Z " fill="#7F8BE5" transform="translate(139,85)"/>
<path d="M0 0 C0.33 0 0.66 0 1 0 C1.17266287 3.20803931 1.33780957 6.41641454 1.5 9.625 C1.54914551 10.58398193 1.59829102 11.54296387 1.64892578 12.53100586 C1.90719596 17.89483646 2.00782519 23.19515483 1.875 28.5625 C1.81257128 37.31292539 3.16756159 46.167715 9 53 C16.85373888 60.51227197 25.56199126 61.12075261 36.04663086 61.20532227 C36.81818512 61.21522186 37.58973938 61.22512146 38.38467407 61.23532104 C40.91136708 61.26667427 43.43807883 61.29158886 45.96484375 61.31640625 C47.72604332 61.33699844 49.48723821 61.35799548 51.24842834 61.37937927 C55.86626366 61.43436612 60.48414183 61.48387777 65.10205078 61.53222656 C69.8213275 61.58261319 74.54054259 61.63820936 79.25976562 61.69335938 C88.50645766 61.80065455 97.7532034 61.90216219 107 62 C107 62.33 107 62.66 107 63 C95.94250152 63.09288343 84.88509661 63.16385801 73.82728672 63.20724869 C68.69209018 63.2280793 63.55716153 63.25631405 58.42211914 63.30175781 C53.46190208 63.34537723 48.50194191 63.36917112 43.54154778 63.37950897 C41.65379737 63.38687151 39.76606024 63.40124868 37.87841988 63.42292023 C18.89297241 63.63212103 18.89297241 63.63212103 12 59 C11.0925 58.401875 10.185 57.80375 9.25 57.1875 C2.43719789 50.56394239 0.00942478 43.88126612 -0.22705078 34.39819336 C-0.22674042 32.79537527 -0.21582244 31.19253064 -0.1953125 29.58984375 C-0.1924826 28.73693253 -0.18965271 27.8840213 -0.18673706 27.00526428 C-0.17565831 24.31585882 -0.15057793 21.62680258 -0.125 18.9375 C-0.11495425 17.09961423 -0.10583121 15.26172317 -0.09765625 13.42382812 C-0.07575951 8.94908687 -0.04131673 4.47460237 0 0 Z " fill="#AC87EC" transform="translate(32,97)"/>
<path d="M0 0 C1.39702148 0.16338867 1.39702148 0.16338867 2.82226562 0.33007812 C5.1130407 0.60027211 7.40060351 0.88650056 9.6875 1.1875 C10.1825 2.6725 10.1825 2.6725 10.6875 4.1875 C6.41569556 5.87635292 4.10409731 6.21461565 -0.3125 5.1875 C-6.93709212 4.34293049 -11.21397163 5.76688388 -17.0234375 8.94140625 C-21.16116579 11.19385561 -25.57043058 13.08464827 -30.3125 12.1875 C-32.125 9.6875 -32.125 9.6875 -33.3125 7.1875 C-32.01505859 7.25904297 -32.01505859 7.25904297 -30.69140625 7.33203125 C-27.00734902 7.1744473 -24.61420706 6.34656928 -21.25 4.875 C-20.24839844 4.44574219 -19.24679688 4.01648438 -18.21484375 3.57421875 C-15.31387981 2.31298312 -15.31387981 2.31298312 -13.0859375 0.46875 C-8.71686417 -1.54963881 -4.67351374 -0.61763044 0 0 Z " fill="#8375E4" transform="translate(93.3125,129.8125)"/>
<path d="M0 0 C3.40062914 0.42507864 5.91175301 1.43098463 8.875 3.0625 C12.80921241 5.07005138 15.52809993 5.6276351 20 5 C22.36447706 4.08932921 24.62952328 3.06031182 26.91015625 1.95703125 C29.24165648 0.88933488 31.45845562 0.32794121 34 0 C33.6740051 3.04261908 33.02104739 3.9801219 30.75 6.125 C24.43128037 10.43321793 18.48650295 10.80489604 11 10 C6.65429044 8.59525631 2.94151666 6.54948971 0 3 C0 2.01 0 1.02 0 0 Z " fill="#5A66A6" transform="translate(79,96)"/>
<path d="M0 0 C4.95354925 4.27806526 5.44110311 9.77823334 6 16 C6.12288884 18.8717091 6.11794009 21.73548691 6.09375 24.609375 C6.09016479 25.45481873 6.08657959 26.30026245 6.08288574 27.17132568 C6.00500007 40.19871414 5.73924446 53.22482527 5.5 66.25 C5.45145997 68.95311857 5.40345829 71.65624661 5.35546875 74.359375 C5.23883601 80.90628443 5.12022489 87.4531556 5 94 C4.67 94 4.34 94 4 94 C3.99191315 93.09370346 3.98382629 92.18740692 3.97549438 91.25364685 C3.89706307 82.64926086 3.80963268 74.04502113 3.71247292 65.44082546 C3.6628475 61.01893086 3.61651906 56.59705634 3.578125 52.17504883 C3.54084004 47.89552119 3.49437302 43.61617699 3.44193649 39.33680916 C3.42361899 37.71645437 3.40843074 36.09606061 3.39665604 34.47564507 C3.30997479 22.94293298 3.0743774 11.19967166 0 0 Z " fill="#ABC6F1" transform="translate(155,45)"/>
<path d="M0 0 C0.70125 0.7425 1.4025 1.485 2.125 2.25 C6.25220956 6.19776567 9.09432108 8.75410595 14.875 9.5 C19.36342705 9.25831547 23.4195192 7.72318258 27 5 C28.23550558 2.94780963 28.23550558 2.94780963 29 1 C29.375 4.1875 29.375 4.1875 29 8 C25.69210695 11.72137968 22.13249438 14.05869331 17.2265625 15.12890625 C13.23522192 14.89782864 10.31730338 12.60296796 7.1015625 10.3828125 C5.14082311 8.81677549 5.14082311 8.81677549 3 9 C2.01 6.03 1.02 3.06 0 0 Z " fill="#787FE5" transform="translate(110,131)"/>
<path d="M0 0 C2.63548461 2.63548461 2.64649512 4.32354922 3 8 C2.32093971 14.51897877 0.79390366 20.34640572 -4 25 C-6.76738742 25.34817456 -8.89803209 25.43806675 -11.625 25.25 C-16.45134366 24.79850416 -16.45134366 24.79850416 -21 26 C-20.67 24.68 -20.34 23.36 -20 22 C-16.04 22 -12.08 22 -8 22 C-7.67 21.34 -7.34 20.68 -7 20 C-5.68 20.33 -4.36 20.66 -3 21 C-2.01 14.07 -1.02 7.14 0 0 Z " fill="#73A7EA" transform="translate(139,85)"/>
<path d="M0 0 C2.49646958 2.25487575 2.95861614 3.39303676 3.1875 6.75 C3.125625 7.4925 3.06375 8.235 3 9 C1.0625 8.6875 1.0625 8.6875 -1 8 C-1.33 7.01 -1.66 6.02 -2 5 C-3.65 5 -5.3 5 -7 5 C-7.66 6.32 -8.32 7.64 -9 9 C-9.99 9 -10.98 9 -12 9 C-12.3125 6.25 -12.3125 6.25 -12 3 C-8.27967458 -1.39674823 -5.40387298 -1.60114755 0 0 Z " fill="#5D70A9" transform="translate(85,79)"/>
<path d="M0 0 C1.9375 1.1875 1.9375 1.1875 3 3 C3.1875 6.1875 3.1875 6.1875 3 9 C1.0625 8.6875 1.0625 8.6875 -1 8 C-1.33 7.01 -1.66 6.02 -2 5 C-3.65 5 -5.3 5 -7 5 C-7.66 6.32 -8.32 7.64 -9 9 C-9.99 9 -10.98 9 -12 9 C-11.52 2.64 -11.52 2.64 -9.375 0 C-5.91616747 -1.45635054 -3.58701629 -0.91305869 0 0 Z " fill="#5E75AA" transform="translate(116,79)"/>
<path d="M0 0 C3.3125 0.9375 3.3125 0.9375 5.3125 2.9375 C6.62997324 3.63498583 7.96164193 4.30709957 9.3125 4.9375 C6.3125 5.9375 6.3125 5.9375 3.3125 4.9375 C2.9825 5.5975 2.6525 6.2575 2.3125 6.9375 C2.3125 6.2775 2.3125 5.6175 2.3125 4.9375 C-2.56435861 6.29218295 -4.17342381 8.65425909 -6.6875 12.9375 C-7.3475 12.6075 -8.0075 12.2775 -8.6875 11.9375 C-9.11029968 7.62494326 -9.11849539 5.56440238 -6.625 1.9375 C-3.6875 -0.0625 -3.6875 -0.0625 0 0 Z " fill="#758CE3" transform="translate(126.6875,116.0625)"/>
<path d="M0 0 C0.86882812 0.00644531 1.73765625 0.01289062 2.6328125 0.01953125 C4.875 0.1875 4.875 0.1875 6.875 1.1875 C6.545 2.1775 6.215 3.1675 5.875 4.1875 C1.915 4.1875 -2.045 4.1875 -6.125 4.1875 C-6.455 5.1775 -6.785 6.1675 -7.125 7.1875 C-8.775 7.5175 -10.425 7.8475 -12.125 8.1875 C-12.455 9.1775 -12.785 10.1675 -13.125 11.1875 C-14.115 11.1875 -15.105 11.1875 -16.125 11.1875 C-15.8723068 7.77614174 -14.88995524 6.96812489 -12.3125 4.5625 C-7.9926516 1.34378943 -5.42600877 -0.08908373 0 0 Z " fill="#698CDB" transform="translate(125.125,103.8125)"/>
<path d="M0 0 C-5.84102791 5.00659535 -10.52089745 6.2394133 -18 7 C-18.99 5.35 -19.98 3.7 -21 2 C-20.175 2.061875 -19.35 2.12375 -18.5 2.1875 C-15.34206893 2.01832512 -13.86201814 1.63807308 -11.0625 0.4375 C-6.9428761 -1.26115032 -4.30326881 -0.98616577 0 0 Z " fill="#906DE0" transform="translate(81,135)"/>
<path d="M0 0 C0.66 0 1.32 0 2 0 C2.20753906 0.68964844 2.41507813 1.37929687 2.62890625 2.08984375 C4.3729089 7.40941667 6.13159067 11.48750699 9.8125 15.75 C12.98512637 19.56122782 12.98512637 19.56122782 13.125 23.6875 C10.15909091 32.42045455 10.15909091 32.42045455 7 34 C7.309375 33.34 7.61875 32.68 7.9375 32 C9.24960255 28.29523985 9.60264135 24.90736009 10 21 C9.34 21 8.68 21 8 21 C7.73445313 20.37351562 7.46890625 19.74703125 7.1953125 19.1015625 C6.84210937 18.28429687 6.48890625 17.46703125 6.125 16.625 C5.77695312 15.81289062 5.42890625 15.00078125 5.0703125 14.1640625 C4.07553933 11.86197701 4.07553933 11.86197701 2 10 C0.30834339 6.52270585 -0.22033069 3.85578703 0 0 Z " fill="#8374D9" transform="translate(53,99)"/>
<path d="M0 0 C0.70125 0.7425 1.4025 1.485 2.125 2.25 C8.25222933 8.11082805 12.69405441 9.67170176 21 10 C20.67 10.66 20.34 11.32 20 12 C15.92268926 13.34948161 13.28409311 12.77001507 9.3125 11.3125 C8.35988281 10.97863281 7.40726562 10.64476562 6.42578125 10.30078125 C3.64982728 8.81222622 3.0581133 7.90561272 2 5 C1.62875 4.0925 1.2575 3.185 0.875 2.25 C0.58625 1.5075 0.2975 0.765 0 0 Z " fill="#7477DA" transform="translate(110,131)"/>
<path d="M0 0 C0.89267578 0.09667969 1.78535156 0.19335938 2.70507812 0.29296875 C3.63384766 0.40511719 4.56261719 0.51726562 5.51953125 0.6328125 C6.45990234 0.73722656 7.40027344 0.84164062 8.36914062 0.94921875 C10.69145755 1.20856379 13.01204962 1.47846454 15.33203125 1.7578125 C15.33203125 2.0878125 15.33203125 2.4178125 15.33203125 2.7578125 C14.73664551 2.77763184 14.14125977 2.79745117 13.52783203 2.81787109 C10.83710972 2.91297376 8.14717977 3.02271092 5.45703125 3.1328125 C4.51988281 3.16375 3.58273438 3.1946875 2.6171875 3.2265625 C1.27333984 3.28457031 1.27333984 3.28457031 -0.09765625 3.34375 C-1.33878174 3.39088135 -1.33878174 3.39088135 -2.60498047 3.43896484 C-4.8878296 3.58380387 -4.8878296 3.58380387 -6.66796875 5.7578125 C-9.29296875 5.8828125 -9.29296875 5.8828125 -11.66796875 5.7578125 C-5.49327456 -0.62980218 -5.49327456 -0.62980218 0 0 Z " fill="#746AD3" transform="translate(87.66796875,129.2421875)"/>
<path d="M0 0 C0.763125 0.20625 1.52625 0.4125 2.3125 0.625 C2.3125 1.285 2.3125 1.945 2.3125 2.625 C1.69375 2.8725 1.075 3.12 0.4375 3.375 C-2.03818687 4.83128639 -2.63875002 6.00312506 -3.6875 8.625 C-4.6775 8.625 -5.6675 8.625 -6.6875 8.625 C-6.375 5.25 -6.375 5.25 -5.6875 1.625 C-2.6875 -0.375 -2.6875 -0.375 0 0 Z " fill="#566CA7" transform="translate(110.6875,79.375)"/>
<path d="M0 0 C1.32 0.66 2.64 1.32 4 2 C3.67 2.99 3.34 3.98 3 5 C1.41058594 4.98259766 1.41058594 4.98259766 -0.2109375 4.96484375 C-1.59895658 4.95546524 -2.98697755 4.94636511 -4.375 4.9375 C-5.42300781 4.92493164 -5.42300781 4.92493164 -6.4921875 4.91210938 C-10.37295376 4.8164558 -10.37295376 4.8164558 -14 6 C-13.67 4.68 -13.34 3.36 -13 2 C-9.04 2 -5.08 2 -1 2 C-0.67 1.34 -0.34 0.68 0 0 Z " fill="#6D95E2" transform="translate(132,105)"/>
<path d="M0 0 C1.625 1.5 1.625 1.5 3 3 C2.1875 4.9375 2.1875 4.9375 1 7 C0.01 7.33 -0.98 7.66 -2 8 C-3.5 6.625 -3.5 6.625 -5 5 C-5 3 -5 3 -3.625 1.375 C-2 0 -2 0 0 0 Z " fill="#F9EAFB" transform="translate(182,177)"/>
<path d="M0 0 C0.99 0.33 1.98 0.66 3 1 C2.690625 1.5775 2.38125 2.155 2.0625 2.75 C1.07416636 4.84294184 0.4831387 6.74535275 0 9 C1.32 9.66 2.64 10.32 4 11 C2.0085944 11.38133299 0.00720923 11.71325582 -2 12 C-3 11 -3 11 -3.25 8.8125 C-2.94224613 5.35026894 -1.68106492 3.01190798 0 0 Z " fill="#D2E7F7" transform="translate(64,126)"/>
<path d="M0 0 C1.32 0.33 2.64 0.66 4 1 C2.35 2.98 0.7 4.96 -1 7 C-1.33 6.34 -1.66 5.68 -2 5 C-2.66 5 -3.32 5 -4 5 C-4.33 6.32 -4.66 7.64 -5 9 C-5.66 9 -6.32 9 -7 9 C-6.25 4.25 -6.25 4.25 -4 2 C-4 2.66 -4 3.32 -4 4 C-3.01 4 -2.02 4 -1 4 C-0.67 2.68 -0.34 1.36 0 0 Z " fill="#7F95DF" transform="translate(113,111)"/>
<path d="M0 0 C0.7425 0.37125 1.485 0.7425 2.25 1.125 C2.8275 1.41375 3.405 1.7025 4 2 C1 3 1 3 -2 2 C-2.33 2.66 -2.66 3.32 -3 4 C-3.33 3.34 -3.66 2.68 -4 2 C-6.52733235 1.34444881 -6.52733235 1.34444881 -9 1 C-9 0.34 -9 -0.32 -9 -1 C-5.1608578 -2.06642839 -3.39753639 -2.08236101 0 0 Z " fill="#6885DE" transform="translate(132,119)"/>
<path d="M0 0 C5.61 0 11.22 0 17 0 C16.67 0.99 16.34 1.98 16 3 C14.02 3 12.04 3 10 3 C10 2.67 10 2.34 10 2 C6.7 1.67 3.4 1.34 0 1 C0 0.67 0 0.34 0 0 Z " fill="#9092E1" transform="translate(89,130)"/>
<path d="M0 0 C1.26937991 3.53324217 0.7575638 5.33100318 -0.8125 8.6875 C-1.16957031 9.47511719 -1.52664062 10.26273438 -1.89453125 11.07421875 C-3 13 -3 13 -5 14 C-4.690625 13.319375 -4.38125 12.63875 -4.0625 11.9375 C-2.86629351 8.63034088 -2.40994603 5.48454122 -2 2 C-1.34 2 -0.68 2 0 2 C0 1.34 0 0.68 0 0 Z " fill="#9680DD" transform="translate(65,119)"/>
<path d="M0 0 C-0.33 0.928125 -0.66 1.85625 -1 2.8125 C-2.14967004 5.92029291 -2.14967004 5.92029291 -2 9 C-2.99 9 -3.98 9 -5 9 C-5.36666667 3.5 -5.36666667 3.5 -3.625 1.125 C-2 0 -2 0 0 0 Z " fill="#5365A6" transform="translate(78,79)"/>
<path d="M0 0 C-0.61875 0.28875 -1.2375 0.5775 -1.875 0.875 C-4.13325765 1.93720042 -4.13325765 1.93720042 -6 4 C-8.625 4.125 -8.625 4.125 -11 4 C-7.65667474 -0.27945633 -5.29105716 -0.4070044 0 0 Z " fill="#7F6DD9" transform="translate(87,131)"/>
<path d="M0 0 C0.66 0 1.32 0 2 0 C2.38922918 1.28745036 2.76098036 2.58019597 3.125 3.875 C3.33382812 4.59429687 3.54265625 5.31359375 3.7578125 6.0546875 C3.83773437 6.69664063 3.91765625 7.33859375 4 8 C3.34 8.66 2.68 9.32 2 10 C0.39644899 6.49223216 -0.22036864 3.85645121 0 0 Z " fill="#8A83DE" transform="translate(53,99)"/>
<path d="M0 0 C3.3 0.33 6.6 0.66 10 1 C10 1.33 10 1.66 10 2 C9.06027344 2.09087891 9.06027344 2.09087891 8.1015625 2.18359375 C7.28429687 2.26738281 6.46703125 2.35117188 5.625 2.4375 C4.81289062 2.51871094 4.00078125 2.59992188 3.1640625 2.68359375 C0.95727195 2.89090114 0.95727195 2.89090114 -1 4 C-0.67 2.68 -0.34 1.36 0 0 Z " fill="#7F9EDD" transform="translate(119,107)"/>
</svg>
